<?xml version="1.0" encoding="UTF-8" standalone="no"?>
<!-- Created with Inkscape (http://www.inkscape.org/) -->

<svg
   width="591.26355mm"
   height="547.53204mm"
   viewBox="0 0 591.26355 547.53204"
   version="1.1"
   id="svg1"
   xml:space="preserve"
   sodipodi:docname="drawing.svg"
   inkscape:version="1.3 (0e150ed6c4, 2023-07-21)"
   xmlns:inkscape="http://www.inkscape.org/namespaces/inkscape"
   xmlns:sodipodi="http://sodipodi.sourceforge.net/DTD/sodipodi-0.dtd"
   xmlns="http://www.w3.org/2000/svg"
   xmlns:svg="http://www.w3.org/2000/svg"><sodipodi:namedview
     id="namedview1"
     pagecolor="#505050"
     bordercolor="#eeeeee"
     borderopacity="1"
     inkscape:showpageshadow="0"
     inkscape:pageopacity="0"
     inkscape:pagecheckerboard="0"
     inkscape:deskcolor="#505050"
     inkscape:document-units="mm"
     inkscape:zoom="0.23760138"
     inkscape:cx="172.55792"
     inkscape:cy="334.59402"
     inkscape:window-width="1920"
     inkscape:window-height="1017"
     inkscape:window-x="-8"
     inkscape:window-y="-8"
     inkscape:window-maximized="1"
     inkscape:current-layer="svg1"
     inkscape:export-bgcolor="#ffffff00" /><defs
     id="defs1" /><g
     inkscape:label="Layer 1"
     inkscape:groupmode="layer"
     id="layer1"
     style="display:inline"
     transform="translate(187.36478,132.57515)"><path
       id="path15"
       style="display:inline;fill:#1a1a1a;stroke:none;stroke-width:0.375999"
       d="m 142.22246,347.01306 c -0.0662,-1.43031 5.36841,-1.17971 7.96891,-0.97437 2.56664,4.03214 4.563,14.01147 7.72532,11.83159 3.41932,-2.1991 -0.79632,-8.47019 -1.25276,-12.73636 l 7.37734,-0.62637 c 4.05296,11.73473 7.16552,23.30974 -2.50551,25.2639 -13.77249,2.78291 -19.18189,-19.92031 -19.3133,-22.75839 z m -89.885152,-1.46154 3.758264,-6.19419 c -4.523786,-4.63084 -11.177602,-6.70133 -17.538566,-1.04397 -6.243121,6.80669 6.053503,30.29975 19.626491,28.53497 8.450112,-2.0184 5.247479,-16.68094 3.54947,-16.70338 -2.641465,-0.0349 -4.537152,0.97427 -6.507364,1.87912 -0.877883,0.40318 -0.06212,2.80465 -0.769922,3.44943 -1.126409,1.02609 -14.424709,-12.47953 -2.118373,-9.92198 z m 164.563252,-72.55539 5.18501,-3.41027 c -4.47397,-7.31814 -10.43139,-10.18592 -19.3481,-4.17585 -3.63714,5.21042 -8.17873,9.82549 2.40111,24.39392 7.76012,7.57826 15.52024,11.8648 23.28036,6.89015 4.92467,-1.92198 8.1065,-14.68656 -3.51467,-20.94885 -2.27782,0.73569 -4.98297,1.70621 -6.61176,3.56688 0.57124,3.003 8.97342,6.93508 1.07876,8.1951 -3.02097,0.48216 -15.08189,-9.51546 -8.69969,-15.17225 3.49909,-3.01317 4.68026,-0.75834 6.22898,0.66117 z m -127.040356,-6.5945 c -0.199002,-3.06285 25.466936,1.84494 25.689106,2.11615 2.57719,3.14592 2.11685,6.42445 0.81202,9.10438 l -5.46263,0.49213 c 2.94758,7.00021 3.4462,11.40479 -2.33761,12.64771 -5.43836,1.16867 -6.35232,-6.02967 -7.2589,-11.36818 -0.34156,-2.01133 -0.0782,-2.17374 -10.285484,-3.74017 -1.611796,-0.24735 -1.038121,-7.43002 -1.156502,-9.25202 z m -104.858461,16.89493 c 3.694293,3.01041 7.1964763,4.22779 10.3352253,2.05313 l 0.730774,-2.50551 13.293119,1.11356 1.0439627,2.6447 c 5.019147,1.23974 10.535187,0.58685 9.952441,-2.19232 C 17.620762,271.35952 14.43823,265.16517 0.13919631,263.91366 -11.39228,264.48358 -14.656818,273.93507 -14.998257,283.29656 Z M 112.13401,404.93248 c -4.27032,-1.02334 -6.42932,-14.07111 -8.26556,-14.07111 -0.23409,0 -0.44249,0.37063 -0.53767,0.95622 -5.469952,20.20601 -32.543012,16.30013 -48.55543,15.76545 -21.061618,-0.21616 -39.496099,-2.79584 -52.5111017,-19.7524 -5.581079,-8.89244 -13.1272863,-22.26746 -11.5002,-33.48138 0.586098,-3.35525 0.748296,-6.84637 1.987609,-10.05416 0.915242,-2.09465 0.617308,-2.75131 -1.854633,-2.90709 -26.2703113,-1.65557 -43.1473403,-17.77125 -54.2395853,-44.44932 -3.518957,-8.46348 -68.564149,1.7785 -97.285169,-30.50321 -2.41161,-5.90713 -7.71529,-13.73302 -8.29021,-19.73421 9.04458,4.90532 19.66106,16.14696 20.48106,11.78936 6.9583,-38.57221 30.36666,-60.50586 37.48301,-159.331983 0.97817,-38.932367 -2.92753,-69.517437 -14.86842,-115.46849 -1.51761,-3.330767 3.97269,-13.742193 1.75141,-17.51927 -1.79928,-2.65138 -7.26962,-5.783836 -7.26962,-6.998493 0,-0.774367 2.72173,-3.516957 5.94212,-7.899947 2.40364,-3.8722 6.91302,1.93758 9.21841,4.15837 2.02376,1.99871 14.69826,-9.14575 37.281592,-4.66561 117.129522,23.236468 240.633698,-3.54211 323.252418,-10.6773 4.16118,-0.35937 4.59569,-2.80494 -0.13635,-5.89828 -13.50332,-8.82715 -46.32713,-24.16654 -59.82984,-30.25324 -2.59446,-1.16952 -187.9879117,0.1521 -270.220008,6.70818 30.147952,-22.074127 26.536137,-31.394597 59.928129,-37.174587 81.55689,-14.11709 134.650659,0.6583 138.384779,2.57759 8.73136,4.48782 3.33003,14.93985 13.08918,14.86716 21.81669,0.16134 51.83062,-0.31297 69.89184,3.28713 31.92886,6.364297 55.54935,26.850387 82.23801,46.944847 20.0746,15.11459 29.61175,46.629061 34.13682,79.612288 0.77338,9.246822 3.94722,4.050128 9.3307,1.395073 19.98208,-13.4601742 56.28597,-7.576088 56.28597,-6.996035 0,0.411867 5.82083,13.44484 5.82083,14.44255 -21.59338,-6.329035 -39.79053,-3.427279 -56.27885,4.118963 -0.23895,0.364693 -0.71131,0.768336 -1.04968,0.896984 -1.62927,0.619447 -1.0023,4.52596 0.59538,6.402813 20.67826,-8.512553 38.6832,-7.708658 59.71731,-1.558583 3.72237,6.257532 5.19968,13.670445 7.35182,20.653037 0.3181,1.036907 0.47638,0.804186 -0.4211,0.224142 -50.11654,-32.390571 -72.86172,6.029834 -72.59576,7.476551 7.64001,41.55908 8.29291,115.79148 -5.28821,167.56474 -4.57405,17.43697 -7.78501,34.05956 -19.81871,45.21409 -1.07654,0.99789 -7.75396,5.02773 -13.81876,6.82301 -5.24957,1.55395 -9.75631,0.84133 -13.22258,2.23503 -2.03669,0.81889 3.52911,15.37316 2.69566,18.99134 -1.62397,7.05003 -3.23819,25.8774 -12.66737,34.19584 -1.24258,1.09621 -4.44731,3.69582 -9.3618,5.35346 -8.04961,2.71509 -18.61359,2.59063 -29.08515,1.94257 -4.09422,-0.25338 -6.59038,-0.36429 -6.61725,0.1123 1.46075,28.05404 -22.57247,61.8351 -22.67356,61.86635 -19.02708,5.88154 -53.28644,2.22903 -78.60148,-7.18074 z m 70.14725,-3.99144 c 0.97615,-0.98384 4.89667,-6.43183 5.20092,-7.74717 -8e-4,-0.63117 -30.81208,0.89294 -56.66423,-2.99551 -3.41448,-0.51358 -4.6524,-0.3949 -6.20532,0.59486 -0.99368,0.63333 -0.6563,6.18843 0.40023,6.59013 13.23542,5.03204 50.78985,8.74963 57.2684,3.55769 z m -96.430718,-4.66533 c 5.202593,-0.87101 5.748961,-6.70264 4.370916,-7.28337 -1.491849,-0.62869 -0.634819,-0.46603 -7.381722,-0.89463 -21.714613,-1.37935 -54.566369,-5.39641 -56.655887,-4.5946 -1.053597,0.4043 -2.575789,5.11902 -2.301661,7.12899 8.18831,8.73327 55.207494,6.7755 61.968354,5.64361 z m -71.30437,-16.43254 c 0.583072,-2.97884 0.511452,-3.41007 -0.822663,-4.95337 -1.54218,-1.78398 -3.8918257,-6.01443 -6.4857697,-11.67739 -3.470247,-7.57604 -4.434469,-10.4751 -4.434469,-13.33278 0,-3.38241 -4.430028,-3.75238 -4.422608,-0.38133 0.02293,10.41541 8.043123,29.67892 11.600804,32.00481 1.1922337,0.77944 1.1103257,1.04635 2.5574027,0.97056 l 1.507872,-0.079 z m 179.314378,-1.93568 c 3.92216,-10.19582 12.64283,-31.24597 1.72261,-38.89956 -3.79516,-2.22188 -15.6492,-4.6991 -25.9601,-5.42506 -2.18281,-0.15369 -5.75468,-0.5114 -7.9375,-0.79492 -2.18281,-0.28352 -5.69515,-0.6452 -7.8052,-0.80374 -3.62821,-0.2726 -10.22541,-0.91631 -16.40417,-1.60062 -4.04233,-0.44769 -13.07432,-0.39745 -14.44234,0.0803 -2.19068,0.76511 -5.0667,2.80246 -5.63715,3.99332 -1.46283,3.05381 -1.3803,12.881 0.20927,24.91883 0.74494,5.64141 1.66637,6.45384 5.942,15.78258 4.01976,8.77048 65.66992,7.8788 70.31258,2.74887 z M 94.777478,373.7734 c 0.852814,-1.07877 2.33289,-34.11898 -16.256866,-41.47881 -20.494837,-8.11407 -56.267812,-6.93177 -56.685337,-6.90859 -4.770399,0.26486 -9.314079,1.08805 -10.019851,4.08195 -2.0239857,8.58579 7.403735,39.83788 16.605146,42.09914 26.788016,6.5832 55.383142,10.38704 66.356908,2.20631 z m 151.643852,-37.359 c 0.27596,-0.24974 0.62333,-0.45407 0.77194,-0.45407 4.53154,-1.3088 7.98404,-11.39935 8.59444,-15.53461 0.60082,-4.13775 -0.2575,-4.6447 -6.20793,-3.66661 -16.71035,2.74676 -36.94237,2.16736 -55.44148,-1.58774 -6.49074,-1.31754 -7.37063,-0.89196 -7.58654,3.66942 -0.54037,2.62411 -0.36084,4.16625 -0.12865,6.62834 0.27988,3.24805 20.81195,6.05418 22.11612,10.92102 17.07232,5.36017 26.97234,2.0843 37.8821,0.0242 z m -140.49782,-2.36439 c 2.80902,-8.54456 4.02151,-10.52962 9.71673,-12.86969 6.69493,-2.75084 32.88961,1.99813 33.74324,1.85524 3.2813,-0.54926 3.59291,-2.98979 3.77423,-4.83002 -34.88822,0.75664 -50.51635,-5.26725 -66.6284,-7.2792 -0.466215,-0.0582 -1.308926,10.85409 -0.280933,11.11211 2.114589,0.53051 9.560868,6.34111 11.143543,10.0002 1.428309,3.62864 6.2551,3.19195 8.53159,2.01136 z M 8.2334393,317.23404 c 11.0993057,-2.58622 23.1873557,-1.53679 34.6149697,-1.35902 l 2.147672,-0.15528 0.173426,-1.19063 c 0.09538,-0.65484 0.216299,-1.42818 0.268699,-1.71854 0.08124,-0.45012 -3.974378,-1.90509 -5.020327,-2.02686 -18.495875,-2.15327 -49.8592007,-4.70707 -60.961289,-7.74229 -2.518713,-0.68859 -6.154148,-1.42732 -6.204605,-0.92753 -0.260387,2.57923 -0.474398,9.49806 -0.152863,15.37742 0.329389,6.02296 -3.542474,7.87765 22.4443113,12.95798 0.467505,0.0914 0.772407,-0.5901 1.161813,-0.9305 4.847998,-4.23792 4.846644,-8.01103 11.528193,-12.28475 z m -46.9236173,-4.18593 c 0.257422,-5.42285 2.049233,-14.17986 0.683772,-17.34641 -0.705117,-1.63519 -16.565481,-30.16743 -17.686629,-28.65087 -2.273559,3.07541 -1.871408,14.30321 0.172078,21.51397 4.200414,10.19853 13.179636,18.80543 15.845105,25.52456 0.634535,1.59956 1.087668,1.12087 0.985672,-1.04125 z M 257.9443,301.8733 c 0.81274,-10.93121 -10.35299,-39.28923 -11.66244,-40.70962 -0.51032,-0.55356 -0.73528,-1.63302 -1.16652,-1.85815 -11.11227,-5.8012 -63.32805,-14.43929 -76.31739,-3.49304 -4.38764,3.69751 13.61604,39.66741 13.66734,41.32921 0.0312,1.01113 4.36324,4.35181 6.20921,4.7883 34.45201,8.14635 65.48181,6.90307 69.2698,-0.0567 z m -101.4996,0.66205 c -4.94163,-15.93333 -13.0443,-37.10186 -28.89038,-43.30389 -20.90686,-6.97801 -46.668711,-10.31454 -64.101333,-8.7558 -4.775674,0.3114 -5.110574,0.70192 -4.028882,4.23545 5.730503,13.87947 17.608861,37.88054 29.05427,43.30822 22.919655,7.22536 67.500005,11.96542 67.966325,4.51602 z M 46.876477,299.05503 c 3.310512,-0.52097 4.790102,-2.32056 2.368965,-5.684 -0.90296,-1.9204 -14.5484,-24.34954 -17.728306,-29.96239 -6.283743,-7.72419 -80.655782,-18.25342 -83.509619,-16.87744 -2.853837,1.37598 15.98787,35.79383 24.895752,42.55778 10.646328,5.7619 68.466641,11.63647 73.973208,9.96604 z m -118.436995,-17.98298 3.77371,-0.93884 c 0.19989,-0.89159 0.25348,-5.12694 0.34321,-13.34346 -14.82859,-2.626 -40.625342,3.75144 -53.034282,-7.64439 -4.40681,-11.00687 5.74095,-26.20666 9.53922,-37.22052 13.157722,-30.7734 18.389772,-63.0846 23.650552,-95.81381 6.00532,-37.567141 -3.2892,-88.403371 -6.08645,-103.536686 -0.38942,-4.45926 -14.294812,-49.362255 -7.841862,-49.743231 52.961459,7.752004 261.58408,10.421841 352.06658,-10.319727 4.89092,-1.168406 12.73164,-2.131882 28.3334,41.1322078 43.92275,121.7989062 20.13686,194.9148662 8.52696,237.0605462 -0.85052,3.0875 -3.80145,19.12869 -12.57398,22.98345 -1.90619,0.8376 -14.64219,3.34255 -13.05441,7.3872 1.95238,4.6487 1.16526,7.12635 7.42115,5.95401 5.85579,-1.87 23.08221,-10.919 24.99882,-17.57641 C 318.74593,175.2406 325.13669,106.5458 291.85754,-6.2824742 289.35475,-14.767839 281.39513,-52.624663 265.40223,-49.977473 151.50272,-31.124516 72.334137,-26.692178 1.7454873,-28.904062 -35.012565,-30.05587 -69.157088,-39.752549 -105.27935,-35.779115 c -6.32733,0.696004 -12.25632,12.288308 -7.92626,23.812194 36.010422,95.8369 4.53783,194.979211 -23.28004,273.312151 -5.80735,16.35305 52.773422,19.56189 64.925202,19.72669 z M 170.39046,240.37196 c 13.00683,-6.90882 57.47327,-2.47625 76.62323,6.86103 3.82812,1.86654 4.10937,1.97938 6.70933,4.81002 1.00084,1.08964 1.6756,1.19208 2.70089,0.41005 35.08781,-24.65159 55.23116,-185.60119 -6.02144,-266.809437 -2.45985,-3.261248 -5.00856,-3.852364 -5.24575,-3.832454 -116.37875,9.7691108 -222.526905,13.7103878 -336.067088,2.518041 29.891465,91.274566 14.01038,192.49169 -17.784722,266.7466 3.17625,6.51088 33.533492,4.2461 42.115072,4.73441 l 0.17249,-0.91949 c 0.69223,-7.98117 1.773978,-20.79364 12.179321,-21.41583 25.913695,-1.47528 79.864568,9.97515 85.601981,13.76988 2.08166,0.69702 3.422651,2.0562 4.946458,3.66812 4.930569,5.26682 7.460074,5.50827 8.147439,0.7777 0.542182,-3.73139 4.080866,-5.24474 10.01327,-7.80678 8.36492,-3.61257 73.470499,-2.44585 96.471739,18.53159 3.35517,4.56366 3.72374,-0.94497 3.82463,-3.15159 0.39369,-8.60987 2.60632,-11.98305 15.61315,-18.89186 z m 7.44752,-66.05775 c -24.32502,-0.9863 -21.42362,-41.37255 -20.20008,-64.6234 1.1802,-22.427161 1.97211,-51.67535 25.52097,-48.453812 25.09805,2.900168 23.13093,32.676037 22.39725,55.933682 -1.21279,38.44512 -12.52651,55.85145 -27.71814,57.14353 z m 4.37994,-42.62606 c 3.95119,-2.01575 5.67677,-5.72541 5.97835,-12.85229 0.41596,-9.82988 -2.79473,-14.32976 -8.76002,-12.2774 -4.43917,1.5273 -6.04237,5.29388 -6.08473,14.29562 -0.069,14.67294 7.39738,11.58351 8.8664,10.83407 z m 29.82344,-58.409526 c -0.41784,-3.015202 10.01742,-4.364212 12.39066,-4.707335 8.43126,5.50866 12.72867,22.866772 12.88975,18.151542 -0.0322,-0.613595 -0.47047,-2.24436 -0.51415,-6.215274 -0.0443,-4.024445 -3.1774,-12.015416 -2.29424,-15.823322 0.58543,-2.524242 2.27965,-0.330192 9.45768,-3.011767 4.5969,-1.717305 4.4378,-1.735004 5.24229,-0.08342 10.4849,21.524953 6.17853,99.317652 4.72896,99.847822 -0.45914,0.16793 -13.92981,2.39397 -14.08375,1.30728 -0.3306,-2.33375 -5.73814,-27.17326 -6.48703,-24.7881 -3.73701,11.90272 -6.32221,24.65027 -7.26049,26.01165 -0.93827,1.36138 -18.93697,3.35439 -19.35814,2.15337 -2.62716,-2.39053 12.78816,-38.72328 5.28846,-92.842448 z m -85.4891,88.056706 c -0.12614,-0.48467 0.56754,-10.70949 0.0367,-11.24012 -1.0937,-1.09323 -3.40099,8.71143 -17.95231,7.99382 -15.513702,-0.76506 -20.763392,-21.36099 -17.644558,-36.35924 0.359101,-13.27638 12.088978,-35.872557 31.791898,-27.885966 1.2405,0.502839 1.41795,0.0027 1.3338,-3.759132 -0.18015,-8.05224 -1.81279,-16.70373 -2.54566,-29.459248 6.34699,-0.729361 12.67584,-2.223709 19.07175,-2.417243 0.6423,0.07062 0.44759,0.133267 0.72053,2.717754 8.73559,82.717425 3.42422,91.116455 3.6519,100.806255 0.005,0.19994 -13.4378,1.46532 -18.46455,-0.39688 z m -11.42024,-24.9279 c 5.75569,-3.6334 7.26723,-15.47465 2.42856,-19.02504 -6.02534,-4.42112 -11.62038,-0.12473 -12.28346,9.4324 -0.52331,7.5426 4.83702,12.76029 9.8549,9.59264 z m -99.980732,23.1458 c -4.059238,-0.38769 -0.81528,-18.3027 -3.103951,-24.32236 -0.681308,-1.79198 -2.4802257,-0.14291 -2.7121957,2.48627 -1.969318,5.75693 -0.740867,15.28618 -2.8883,20.37304 -0.591942,1.21064 -19.4913583,0.78122 -19.8003753,-1.89916 -1.511663,-13.11229 5.7841823,3.99891 4.5195193,-99.169013 7.253735,0.17342 14.465219,0.989903 21.6914497,1.570747 2.306764,0.178202 3.038461,0.618079 2.761541,1.660167 0.620196,4.99319 -5.241135,18.524887 -1.977308,22.501159 11.249049,-7.679719 17.662459,-17.202067 20.597153,-16.148262 1.714503,0.615652 15.660284,13.965492 15.660284,14.991078 0,0.827027 -4.746244,6.300138 -13.341737,15.384967 -13.575187,14.348017 -13.365617,14.034027 -10.625324,15.919397 5.582077,3.84057 7.89392,7.76619 9.676912,16.43189 1.543962,7.50396 1.71519,24.37154 0.316264,31.15503 -4.039759,2.99163 -15.551504,-0.42506 -20.773932,-0.93495 z m -69.768989,-5.238 c -4.805139,-6.50448 -7.156344,-9.20573 -6.451678,-9.20573 5.16132,-9.63699 18.406219,-18.81711 22.770924,-28.54226 -5.958786,-10.40526 -11.357653,-21.528658 -17.426791,-31.828785 -2.237215,-3.578571 -2.233895,-3.449982 -0.14284,-5.531781 4.604207,-4.583827 7.599184,-6.12296 8.420236,-4.3272 4.424258,7.755332 19.396126,26.940596 22.733495,39.095436 0.179801,0.65485 0.94808,3.56694 0.82903,3.96117 -3.583842,11.86762 -18.711596,25.68203 -27.571992,36.2555 -1.901436,1.93119 -1.827219,1.92828 -3.160382,0.12365 z M 59.159522,144.4729 C 45.800381,142.27445 36.118567,128.9035 40.193724,113.25897 44.075868,98.355427 49.577395,88.609287 63.917595,87.403791 c 18.499276,-1.555126 25.593709,16.199399 22.095119,30.910039 -2.322904,9.7672 -9.879592,28.48138 -26.853196,26.15907 z m 6.224948,-21.09723 c 7.539592,-3.68878 5.71704,-15.38499 -2.38849,-15.32811 -4.379283,0.0307 -7.338134,2.91993 -7.728423,7.54649 -0.527295,6.25065 4.827571,10.36945 10.116913,7.78162 z m 41.88331,-234.48323 c -1.14479,-0.71875 -4.67635,-1.61811 -8.66028,-2.63321 -54.440392,-13.8713 -123.285894,-1.55059 -123.956607,0.1811 -0.472838,1.2208 -1.095452,1.55268 -1.237579,6.281 42.399677,-0.0295 145.998756,3.79589 133.854466,-3.82886 z m 176.0979,484.48525 c 5.20052,-47.25704 24.5595,-82.92823 57.45949,-116.72332 22.61277,-23.22799 42.42108,-26.48459 49.18835,-31.15874 2.32563,0.18569 -2.68685,9.75734 -3.79234,12.77414 -2.49969,6.82151 -21.71733,3.15744 -59.15583,54.35923 -21.7659,29.76757 -24.68045,41.41083 -30.62137,74.77533 -0.72348,4.06313 -7.74072,5.42187 -10.74171,8.2331 -2.16789,1.64151 -2.55191,2.77451 -2.33659,-2.25974 z m 25.35731,-17.1802 c -0.67624,-14.15986 15.3738,-44.8161 24.88805,-58.7533 11.08639,-16.2402 36.40616,-36.33938 41.39281,-37.96573 2.03106,-0.79845 4.20945,-2.87018 2.05856,1.35249 -3.08973,7.72076 -7.71913,14.89062 -10.87608,22.66882 -5.19634,2.50099 -13.16199,8.61709 -19.50895,16.50285 -10.62759,13.20421 -19.20227,30.48238 -20.81785,37.56558 -0.26979,1.18285 -17.13654,20.4943 -17.13654,18.62929 z m 46.75166,-153.58393 c -21.02926,-22.82275 -1.88434,-106.988633 41.51856,-129.122007 1.03198,3.869483 3.09912,10.705626 3.03273,14.62566 -0.009,0.55912 -4.99619,3.779386 -5.2628,3.99828 -43.85946,36.009687 -38.07577,105.407817 -23.13074,106.281037 14.83884,0.86702 28.43321,-13.39293 28.04547,-11.33047 -0.70573,3.75389 -1.27013,17.21782 -4.57456,19.24844 -12.55314,7.7141 -26.79435,8.23026 -39.62866,-3.70094 z m -541.32652,-15.28767 c -0.674,-1.63154 -1.47093,-10.87622 -1.5129,-11.88427 8.1179,4.1807 20.18897,9.45023 27.95765,15.37414 9.33376,-15.08445 11.03736,-34.89301 13.67039,-52.49918 7.04284,-38.696353 4.7001,-77.790943 -2.45834,-115.909392 -0.52486,-2.841253 -16.6074,-6.780626 -14.54909,-10.613586 2.10902,-3.9273892 3.63023,-7.7039812 3.74027,-8.2160832 6.0193,-0.685879 12.56958,5.095287 18.28604,7.3076362 13.21891,13.316916 11.61458,73.552648 11.4163,74.026931 2.27936,15.661884 -12.43772,119.550324 -23.58534,119.550324 -10.17299,2.37885 -24.96661,-11.41909 -32.96498,-17.13652 z m 562.79553,2.59875 c -0.049,0.006 -7.81798,0.17324 -8.99233,-11.82347 -2.18299,-22.30054 8.84981,-47.45436 14.24096,-55.35462 0.25831,-0.37854 18.23556,-26.028091 18.49778,-25.866028 1.40112,2.712814 1.98497,16.315158 1.78127,16.829808 -3.8934,9.83657 -31.23958,52.65444 -18.76332,58.97139 4.69,2.37463 19.58182,-18.47494 19.73643,-17.2612 0.56288,4.41876 1.05635,16.56964 -1.46597,19.62698 -8.00646,9.70474 -16.16262,13.76133 -25.03482,14.87714 z M 33.417308,-57.702033 c -2.131062,0.0521 -16.777604,-11.85087 -13.913587,-11.86103 29.659327,-0.10519 53.13423,-1.97532 75.891579,-3.31384 1.667202,-0.0981 9.0801,8.17357 7.58091,9.2708 -2.96054,2.16678 -37.016092,5.10852 -69.558902,5.90407 z m -15.471021,-14.71396 c -2.527096,0.35372 -10.9096837,-9.08056 -10.9096837,-9.13415 0,-0.76753 1.669803,-2.38325 2.463023,-2.38325 0.374411,0 0.7551947,-0.12045 0.8461857,-0.26768 0.09099,-0.14723 0.961221,-0.25989 1.933844,-0.25036 0.972623,0.01 2.601844,-0.0526 3.620489,-0.13805 22.487805,0.96377 44.932129,-2.00908 67.351142,-1.69017 4.095482,3.39598 11.968762,11.342 7.599168,11.342 z"
       inkscape:export-filename="path15.svg"
       inkscape:export-xdpi="96"
       inkscape:export-ydpi="96" /></g></svg>
