<?xml version="1.0" encoding="UTF-8" standalone="no"?><!DOCTYPE svg PUBLIC "-//W3C//DTD SVG 1.1//EN" "http://www.w3.org/Graphics/SVG/1.1/DTD/svg11.dtd"><svg width="100%" height="100%" viewBox="0 0 8000 4500" version="1.1" xmlns="http://www.w3.org/2000/svg" xmlns:xlink="http://www.w3.org/1999/xlink" xml:space="preserve" xmlns:serif="http://www.serif.com/" style="fill-rule:evenodd;clip-rule:evenodd;stroke-miterlimit:10;"><g><g><path d="M2774.161,2426.567c-47.396,-55.556 -41.667,-139.583 13.194,-187.674l418.576,-368.056c54.688,-48.09 137.674,-42.188 185.069,13.368c47.396,55.556 41.667,139.583 -13.194,187.674l-418.576,368.056c-54.688,48.09 -137.674,42.188 -185.069,-13.368Z" style="fill:#86cad9;fill-rule:nonzero;"/><path d="M3389.091,2797.574c47.396,-55.556 41.667,-139.583 -13.194,-187.674l-418.576,-368.056c-54.688,-48.09 -137.674,-42.188 -185.069,13.368c-47.396,55.556 -41.667,139.583 13.194,187.674l418.576,368.056c54.688,48.09 137.674,42.188 185.069,-13.368Z" style="fill:#86cad9;fill-rule:nonzero;"/><circle cx="2845.168" cy="1946.185" r="98.958" style="fill:#fff;stroke:#fff;stroke-width:14.76px;"/><circle cx="2845.168" cy="2734.901" r="98.958" style="fill:#fff;stroke:#fff;stroke-width:14.76px;"/></g></g><path d="M4362.199,2199.831c-2.951,-199.653 -169.097,-359.375 -372.569,-359.375l-5.729,0c-206.076,2.951 -370.66,168.403 -367.708,369.965l4.167,274.479c2.951,201.389 172.222,362.326 378.299,359.375c206.076,-2.951 370.66,-168.403 367.708,-369.965l-4.167,-274.479Zm-349.653,482.118l-18.229,0.347c-64.41,1.042 -117.535,-49.479 -118.576,-112.674l-6.25,-431.424c-1.042,-63.194 50.694,-115.104 115.278,-115.972l18.056,0c64.583,-1.215 117.708,49.479 118.576,112.5l6.25,431.424c0.868,63.194 -50.694,115.104 -115.278,115.799l0.174,0Z" style="fill:#fff;fill-rule:nonzero;"/><g><g><path d="M5208.397,2427.262c47.396,-55.556 41.667,-139.583 -13.194,-187.847l-418.576,-368.403c-54.688,-48.264 -137.674,-42.188 -185.069,13.368c-47.396,55.556 -41.667,139.583 13.194,187.847l418.576,368.403c54.688,48.264 137.674,42.188 185.069,-13.368Z" style="fill:#fff;fill-rule:nonzero;"/><path d="M4593.466,2798.442c-47.396,-55.556 -41.667,-139.583 13.194,-187.847l418.576,-368.403c54.688,-48.264 137.674,-42.188 185.069,13.368c47.396,55.556 41.667,139.583 -13.194,187.847l-418.576,368.403c-54.688,48.264 -137.674,42.188 -185.069,-13.368Z" style="fill:#fff;fill-rule:nonzero;"/><circle cx="4689.647" cy="2343.234" r="98.958" style="fill:#fff;stroke:#fff;stroke-width:14.76px;"/></g></g><path d="M6181.505,2197.053c-2.951,-200.521 -169.097,-360.938 -372.569,-360.938l-5.729,0c-206.076,2.951 -370.66,169.097 -367.708,371.528l4.167,275.694c2.951,202.257 172.222,363.889 378.299,360.938c206.076,-2.951 370.66,-169.097 367.708,-371.528l-4.167,-275.694Zm-349.653,484.201l-18.229,0.347c-64.41,1.042 -117.535,-49.826 -118.576,-113.194l-6.25,-433.333c-1.042,-63.542 50.694,-115.451 115.278,-116.493l18.056,0c64.583,-1.215 117.708,49.653 118.576,113.021l6.25,433.333c0.868,63.542 -50.694,115.451 -115.278,116.319l0.174,0Z" style="fill:#fff;fill-rule:nonzero;"/><g><g><path d="M7168.084,2841.671c74.306,-0.174 134.375,-63.368 134.201,-140.972l-1.736,-715.625c-0.174,-77.778 -60.764,-140.451 -135.069,-140.278c-74.306,0.174 -134.375,63.368 -134.201,140.972l1.736,715.625c0.174,77.778 60.764,140.451 135.069,140.278Z" style="fill:#fff;fill-rule:nonzero;"/><path d="M6410.966,1881.081c54.688,-65.451 160.417,-52.778 236.111,28.299l578.646,619.271c75.694,81.076 92.708,199.653 37.847,265.104c-54.688,65.451 -160.417,52.778 -236.111,-28.299l-578.646,-619.271c-75.694,-81.076 -92.708,-199.653 -37.847,-265.104Z" style="fill:#fff;fill-rule:nonzero;"/><circle cx="6515.654" cy="2704.345" r="130.729" style="fill:#fff;stroke:#fff;stroke-width:19.44px;"/></g></g><clipPath id="_clip1"><rect x="-212.5" y="541.799" width="3206.486" height="3501.134"/></clipPath><g clip-path="url(#_clip1)"><path d="M1874.202,1177.861c8.223,42.851 8.97,103.961 0,147.93c-11.587,58.129 -30.275,103.961 -61.67,152.401c-49.336,75.642 -136.422,143.459 -220.145,175.504c-42.235,16.395 -71.762,56.266 -58.68,103.216c11.213,40.243 60.923,74.897 103.531,58.501c130.816,-50.304 243.691,-134.516 320.686,-252.636c82.601,-127.063 107.269,-282.073 78.49,-429.63c-8.596,-44.342 -62.044,-70.052 -103.531,-58.501c-46.72,12.669 -67.277,58.501 -58.68,103.216Z" style="fill:#fff;fill-rule:nonzero;"/><path d="M1398.779,1730.456c-262.006,157.618 -543.447,399.448 -535.972,733.688c3.364,145.694 68.024,290.643 183.142,382.308c115.118,91.664 237.711,143.831 374.881,173.268c105.4,22.73 150.625,-138.987 44.851,-161.717c-207.811,-44.342 -437.299,-165.816 -434.683,-407.273c2.99,-265.305 246.682,-450.87 452.623,-574.952c92.692,-55.52 8.223,-200.842 -84.844,-144.949l0,-0.373Z" style="fill:#fff;fill-rule:nonzero;"/><path d="M2024.453,3554.801c39.619,-86.82 67.277,-180.348 55.69,-276.484c-11.587,-96.136 -56.064,-182.584 -127.078,-248.91c-142.403,-132.653 -355.072,-149.793 -534.85,-195.998c-44.104,-11.179 -91.197,14.532 -103.531,58.501c-12.334,43.969 14.577,91.664 58.68,103.216c149.878,38.38 325.171,51.049 448.138,141.595c19.809,14.532 47.468,47.323 58.68,65.581c5.233,8.198 9.344,16.768 14.203,25.338c8.223,14.532 -1.495,-7.08 4.485,10.061c5.233,15.277 9.344,30.927 13.082,46.95c4.485,18.631 0.748,-7.825 1.495,10.061c0.374,9.688 1.121,19.376 1.121,29.064c0,9.688 -0.748,19.749 -1.495,29.437c-1.121,17.141 2.243,-6.707 -1.495,12.296c-7.101,36.144 -19.809,77.132 -32.517,105.079c-18.688,40.988 -11.96,90.174 30.275,114.767c36.255,21.239 96.056,11.179 115.118,-30.182l0,-0.373Z" style="fill:#fff;fill-rule:nonzero;"/><path d="M1949.327,1368.642l-364.042,0" style="fill:none;fill-rule:nonzero;stroke:#fff;stroke-width:149.28px;stroke-linecap:round;"/><path d="M1340.099,2579.283l-353.577,0" style="fill:none;fill-rule:nonzero;stroke:#fff;stroke-width:149.28px;stroke-linecap:round;"/><path d="M1563.607,2337.453l-595.026,0" style="fill:none;fill-rule:nonzero;stroke:#fff;stroke-width:149.28px;stroke-linecap:round;"/><path d="M1672.371,3311.853l304.241,0" style="fill:none;fill-rule:nonzero;stroke:#fff;stroke-width:149.28px;stroke-linecap:round;"/><path d="M2210.212,2340.061c0,40.616 -14.95,79.741 -41.487,107.687l-924.308,971.419l-114.744,112.904c-42.235,44.714 -97.925,49.558 -142.403,26.456c-3.738,-1.863 -7.849,-4.471 -11.587,-7.08c-37.75,-23.848 -65.034,-69.307 -65.034,-126.691c0,-40.616 14.95,-79.741 41.487,-107.687l907.863,-953.906c8.97,-9.688 9.344,-26.083 0,-35.771l-907.863,-974.028c-26.537,-27.946 -41.487,-66.699 -41.487,-107.687c0,-87.938 63.913,-147.185 131.19,-147.185c30.648,0 61.67,12.296 87.834,39.87l1014.758,1070.164c0,0 66.156,74.897 66.156,130.789l-0.374,0.745Z" style="fill:#86cad9;fill-rule:nonzero;"/></g></svg>
