<?xml version="1.0" encoding="UTF-8"?>
<svg id="Warstwa_7" data-name="Warstwa 7" xmlns="http://www.w3.org/2000/svg" viewBox="0 0 85.79 93.96">
  <defs>
    <style>
      .cls-1 {
        fill: #fff;
      }

      .cls-2 {
        fill: none;
        stroke: #fff;
        stroke-linecap: round;
        stroke-miterlimit: 10;
        stroke-width: 4px;
      }

      .cls-3 {
        fill: #86cad9;
      }
    </style>
  </defs>
  <path class="cls-1" d="M55.83,17.07c.22,1.15.24,2.79,0,3.97-.31,1.56-.81,2.79-1.65,4.09-1.32,2.03-3.65,3.85-5.89,4.71-1.13.44-1.92,1.51-1.57,2.77.3,1.08,1.63,2.01,2.77,1.57,3.5-1.35,6.52-3.61,8.58-6.78,2.21-3.41,2.87-7.57,2.1-11.53-.23-1.19-1.66-1.88-2.77-1.57-1.25.34-1.8,1.57-1.57,2.77h0Z"/>
  <path class="cls-1" d="M43.11,31.9c-7.01,4.23-14.54,10.72-14.34,19.69.09,3.91,1.82,7.8,4.9,10.26s6.36,3.86,10.03,4.65c2.82.61,4.03-3.73,1.2-4.34-5.56-1.19-11.7-4.45-11.63-10.93.08-7.12,6.6-12.1,12.11-15.43,2.48-1.49.22-5.39-2.27-3.89h0Z"/>
  <path class="cls-1" d="M59.85,80.86c1.06-2.33,1.8-4.84,1.49-7.42s-1.5-4.9-3.4-6.68c-3.81-3.56-9.5-4.02-14.31-5.26-1.18-.3-2.44.39-2.77,1.57s.39,2.46,1.57,2.77c4.01,1.03,8.7,1.37,11.99,3.8.53.39,1.27,1.27,1.57,1.76.14.22.25.45.38.68.22.39-.04-.19.12.27.14.41.25.83.35,1.26.12.5.02-.21.04.27.01.26.03.52.03.78s-.02.53-.04.79c-.03.46.06-.18-.04.33-.19.97-.53,2.07-.87,2.82-.5,1.1-.32,2.42.81,3.08.97.57,2.57.3,3.08-.81h0Z"/>
  <line class="cls-2" x1="57.84" y1="22.19" x2="48.1" y2="22.19"/>
  <line class="cls-2" x1="41.54" y1="54.68" x2="32.08" y2="54.68"/>
  <line class="cls-2" x1="47.52" y1="48.19" x2="31.6" y2="48.19"/>
  <line class="cls-2" x1="50.43" y1="74.34" x2="58.57" y2="74.34"/>
  <path class="cls-3" d="M64.82,48.26c0,1.09-.4,2.14-1.11,2.89l-24.73,26.07-3.07,3.03c-1.13,1.2-2.62,1.33-3.81.71-.1-.05-.21-.12-.31-.19-1.01-.64-1.74-1.86-1.74-3.4,0-1.09.4-2.14,1.11-2.89l24.29-25.6c.24-.26.25-.7,0-.96l-24.29-26.14c-.71-.75-1.11-1.79-1.11-2.89,0-2.36,1.71-3.95,3.51-3.95.82,0,1.65.33,2.35,1.07l27.15,28.72s1.77,2.01,1.77,3.51Z"/>
</svg>
